<svg version="1" xmlns="http://www.w3.org/2000/svg" width="933.333" height="933.333" viewBox="0 0 700.000000 700.000000"><path d="M87.8 1.5C51.5 7.6 20 33.3 7.2 67.3-.1 86.7.6 61.5.2 344.5 0 535 .2 601.8 1 608.5c4.5 34.6 26.4 65.1 57.7 80.4 8.8 4.3 17.8 7.4 27.3 9.3 9.6 1.9 518.4 1.9 528 0 45.7-9.1 79.1-44.7 85-90.6.7-5.6 1-88.2.8-263.1-.4-283 .3-257.8-7-277.2-10.9-28.9-35.7-52.3-66-62.3C611-.2 622 0 349 .1 146.4.2 94 .5 87.8 1.5zm91 88c6.1 1.8 11 5.7 12.8 10.2 1.1 2.6 1.4 16.7 1.4 75.1 0 71.3 0 72 2.1 74.6 1.8 2.3 2.8 2.6 7.8 2.6 4.7 0 6.1-.4 8-2.3 2.1-2.3 2.3-4.3 6.1-72.3 2.2-38.4 4.2-71.8 4.5-74.2.8-5.5 5.2-10.5 11.3-12.9 5.6-2.1 15.9-2.3 21.5-.4 5.1 1.7 10.3 6.4 11.6 10.4.6 1.8 2.9 35.4 5.1 74.7 4.7 82.3 3.6 76.3 13.8 76.8 5.1.2 6.5-.1 8.2-1.8 2-2 2-2.8 2-74.3v-72.3l2.3-4.4c2.7-5.5 7.1-8.5 14.4-10 9.9-2.1 22.1 1.1 26.2 6.9 2.7 3.7 3.5 7.5 8 36.6 13.3 85.9 14.4 114.8 5.4 142-5.4 16.5-13.4 29.8-25.2 41.6-8.8 8.8-16 13.8-28.8 20.3-6.8 3.4-9.4 5.2-9.8 6.9-.4 1.3 2.4 57.2 6 124.2 7.3 134.6 7.3 127.9.7 135.5-6.8 8-6.6 8-50.1 8-36.9 0-38.6-.1-42.8-2.1-8.2-4-12.6-11.5-12.6-21.9 0-3.6 2.9-59.7 6.4-124.8 4.7-87 6.1-118.7 5.3-120-.6-.9-5.6-4-11-6.7-17.5-8.9-29.6-19.5-40-35.1-18.5-27.8-22-55.8-14.4-115.4 3.3-25.7 10.2-72.2 12.1-81.1 1.5-6.8 5.7-11.5 12.9-13.9 6.7-2.4 12-2.5 18.8-.5zm363.9 1.3c5 2.6 9.6 8 11.2 13.1.8 2.8 1.1 67.7 1.1 246.9v243l-2.8 5.3c-2 3.9-4.1 6.2-7.7 8.4l-4.8 3-34.1.3c-23.3.2-35.3 0-37.9-.8-6-1.8-12.4-8.2-14.3-14.5-1.7-5.3-1.6-7.3 6-101 4.3-52.7 7.5-96.8 7.2-98-.3-1.3-5.1-6.2-10.7-11-62.1-53.8-78.1-127.1-43.5-199 10.7-22.4 22-38.2 39.9-56.3 22.9-23.3 47.2-37.4 71.7-41.6 5.4-.9 14.6.2 18.7 2.2z"/></svg>